PathFileType	4	(X/Y/Z)	Walk2.trc
DataRate	CameraRate	NumFrames	NumMarkers	Units	OrigDataRate	OrigDataStartFrame	OrigNumFrames
200.000000	200.000000	8	61	mm	200.000000	869	1012
Frame#	Times		RCAR		LToe		LTB4		LTB1		RWRR		LMT1		RACR1		LFA1		LUA1		RFA1		LElbow		RFHD		LCAR		LASI		LWRU		LWRR		RLFC		STRN		LACR1		RTH3		RWRU		RToe		C7		RPSI		RMT1		RMT5		LPSI		RMFC		LFHD		RTB3		LTH3		LMFC		RTB2		RTB1		RCAL		LTH4		CLAV		RTB4		RTH2		RMMAL		LMT5		LTH1		RASI		LTH2		RLMAL		LBHD		LTB2		RBHD		LLFC		RUA1		RElbow		LTB3		RTH4		LMMAL		RTH1		LCAL		RBack		T10		LElbowM		LLMAL		RElbowM
			X1	Y1	Z1	X2	Y2	Z2	X3	Y3	Z3	X4	Y4	Z4	X5	Y5	Z5	X6	Y6	Z6	X7	Y7	Z7	X8	Y8	Z8	X9	Y9	Z9	X10	Y10	Z10	X11	Y11	Z11	X12	Y12	Z12	X13	Y13	Z13	X14	Y14	Z14	X15	Y15	Z15	X16	Y16	Z16	X17	Y17	Z17	X18	Y18	Z18	X19	Y19	Z19	X20	Y20	Z20	X21	Y21	Z21	X22	Y22	Z22	X23	Y23	Z23	X24	Y24	Z24	X25	Y25	Z25	X26	Y26	Z26	X27	Y27	Z27	X28	Y28	Z28	X29	Y29	Z29	X30	Y30	Z30	X31	Y31	Z31	X32	Y32	Z32	X33	Y33	Z33	X34	Y34	Z34	X35	Y35	Z35	X36	Y36	Z36	X37	Y37	Z37	X38	Y38	Z38	X39	Y39	Z39	X40	Y40	Z40	X41	Y41	Z41	X42	Y42	Z42	X43	Y43	Z43	X44	Y44	Z44	X45	Y45	Z45	X46	Y46	Z46	X47	Y47	Z47	X48	Y48	Z48	X49	Y49	Z49	X50	Y50	Z50	X51	Y51	Z51	X52	Y52	Z52	X53	Y53	Z53	X54	Y54	Z54	X55	Y55	Z55	X56	Y56	Z56	X57	Y57	Z57	X58	Y58	Z58	X59	Y59	Z59	X60	Y60	Z60	X61	Y61	Z61

869	4.345	818.12	898.05	397.4	1099	146.8	-30.484	853.16	303.45	-20.539	828.71	384.92	-19.114	802.29	938.4	336.51	1047.2	125.77	-20.395	605.01	1497.4	241.2	599.36	1042.2	-270.35	561.66	1339.7	-209.32	720.96	1057.6	375.21	515.57	1172	-252.5	741.81	1693.5	127.83	644.48	880.15	-288.68	673.62	1026.5	-98.75	571.22	912.28	-277.89	654.59	918.8	-233.61	463.86	504.54	223.58	724.27	1293.1	52.055	583.3	1524	-130.17	478.2	644.42	237.69	749.21	915.35	403.69	563.09	34.753	118.47	490.35	1551.1	67.898	431.36	1062.6	84.915	513.24	50.687	101.73	463.71	30.269	196.82	441.49	1062	-23.354	462.93	502.75	74.328	746.69	1700.2	22.627	431.35	188.78	117.46	709.25	644.88	-147.82	742.38	499.54	23.938	456.41	264.65	188.5	484.12	352.66	136.55	288.77	46.13	110.57	680.67	726.65	-160.15	657.61	1465.3	42.273	457.9	269.81	126.18	542.84	724.18	252.52	385.73	102.63	62.72	1028.6	91.846	-104.61	650.76	808.08	-169.45	629.93	1041.7	215.13	732.81	749.22	-142.19	351.19	76.655	154.73	580.82	1690.6	-4.9819	877.32	311.18	-79.066	570.71	1684.9	136.56	743.51	510.44	-120.06	614.79	1321.4	321.19	604.87	1160.6	375.51	881.66	222.16	-22.855	483.21	727.42	246.7	898.56	120.44	9.7627	490.15	814.95	257.76	845.44	36.97	-57.144	440.15	1426.5	187.93	452.5	1193.7	36.248	492.67	1145.2	-164.4	897.79	91.783	-91.472	572.75	1124.1	290.71
870	4.35	824.75	897.93	396.73	1108.2	148.74	-30.945	860.79	303.31	-20.706	835.54	384.58	-19.457	808.74	938.24	335.89	1056.7	127.43	-20.662	609.99	1496.5	240.78	604.64	1040.9	-270.6	567.24	1338.5	-209.68	727.01	1057.1	374.71	521.14	1170.8	-252.74	746.77	1692.7	127.39	649.36	878.67	-288.94	679.59	1025.4	-98.646	576.18	911.02	-278.21	659.54	917.29	-233.86	466.81	504.2	223.35	729.79	1292.3	51.948	588.74	1522.9	-130.63	481.9	643.99	237.44	755.78	914.96	403.11	563.23	34.641	118.45	495.49	1549.9	67.323	437.04	1061.6	84.166	513.42	50.703	101.74	463.74	30.177	196.88	447.35	1061	-24.078	466.23	502.35	74.096	751.7	1699.4	22.185	432.29	188.58	117.45	713.71	643.23	-148.59	747.76	498.46	23.739	457.77	264.3	188.43	486.16	352.11	136.44	288.83	46.677	110.61	685.31	725.11	-160.96	662.91	1464.4	41.939	459.41	269.42	126.1	546.92	723.46	252.18	386.07	102.73	62.728	1038.2	92.369	-104.41	655.54	806.64	-170.02	634.43	1040.8	214.82	737.52	747.55	-143	351.45	76.986	154.7	585.86	1689.6	-5.4935	884.56	311.07	-79.343	575.68	1683.9	136.04	748.72	509.1	-120.43	620.14	1320.6	320.79	610.58	1159.7	375.13	890.09	222.28	-22.877	487.29	726.97	246.54	908.12	120.78	9.97	494.64	814.45	257.54	855.49	36.546	-56.319	445.33	1425.2	187.29	458.23	1192.5	35.618	498.23	1144.1	-164.64	907.23	91.705	-91.037	578.51	1123.1	290.33
871	4.355	831.33	897.75	396.06	1116.9	150.18	-31.533	868.22	303.06	-20.792	842.34	384.17	-19.735	815.13	938.03	335.27	1065.6	128.67	-20.994	614.98	1495.6	240.35	609.94	1039.5	-270.88	572.84	1337.4	-210.07	733.02	1056.6	374.2	526.74	1169.6	-253	751.74	1691.9	126.95	654.26	877.15	-289.21	685.56	1024.3	-98.575	581.16	909.73	-278.55	664.51	915.74	-234.12	469.83	503.86	223.12	735.34	1291.4	51.817	594.2	1521.8	-131.1	485.65	643.57	237.19	762.3	914.51	402.53	563.36	34.541	118.42	500.64	1548.7	66.725	442.76	1060.6	83.415	513.59	50.722	101.75	463.76	30.088	196.92	453.21	1059.9	-24.814	469.56	501.94	73.867	756.72	1698.5	21.739	433.23	188.4	117.44	718.45	641.7	-149.28	753.38	497.52	23.626	459.17	263.95	188.36	488.23	351.56	136.32	288.9	47.27	110.67	690.16	723.66	-161.78	668.23	1463.4	41.586	460.94	269.05	126.02	551.06	722.73	251.83	386.41	102.85	62.738	1047.1	92.512	-104.23	660.46	805.26	-170.6	638.99	1039.9	214.52	742.45	746.02	-143.88	351.71	77.342	154.69	590.9	1688.6	-6.0155	891.58	310.79	-79.555	580.65	1682.9	135.52	754.05	507.77	-120.72	625.49	1319.7	320.36	616.27	1158.8	374.74	898.16	222.26	-22.802	491.43	726.52	246.37	917.17	120.96	10.297	499.2	813.95	257.32	864.81	36.092	-55.27	450.52	1424	186.61	463.97	1191.3	34.989	503.81	1143	-164.9	916	91.451	-90.468	584.25	1122.1	289.93
872	4.36	837.85	897.51	395.39	1125	151.06	-32.213	875.45	302.7	-20.795	849.1	383.69	-19.941	821.48	937.76	334.66	1073.9	129.46	-21.369	619.98	1494.6	239.9	615.27	1038.1	-271.18	578.46	1336.2	-210.49	739	1056	373.69	532.37	1168.4	-253.28	756.71	1691	126.5	659.18	875.59	-289.49	691.52	1023.1	-98.547	586.17	908.41	-278.92	669.51	914.16	-234.39	472.91	503.52	222.89	740.92	1290.6	51.66	599.69	1520.7	-131.6	489.47	643.14	236.93	768.76	914.02	401.95	563.47	34.452	118.39	505.8	1547.6	66.107	448.51	1059.6	82.663	513.75	50.745	101.75	463.79	30.002	196.96	459.09	1058.8	-25.559	472.91	501.54	73.641	761.74	1697.6	21.288	434.19	188.24	117.43	723.48	640.31	-149.89	759.26	496.7	23.59	460.6	263.61	188.27	490.32	351.02	136.18	288.97	47.911	110.74	695.23	722.3	-162.57	673.57	1462.4	41.213	462.49	268.69	125.93	555.26	722	251.48	386.75	103.01	62.753	1055.3	92.267	-104.05	665.53	803.95	-171.2	643.65	1038.9	214.2	747.6	744.64	-144.82	351.98	77.727	154.7	595.95	1687.5	-6.5477	898.38	310.34	-79.692	585.63	1681.9	134.98	759.51	506.45	-120.93	630.84	1318.8	319.92	621.94	1157.9	374.32	905.86	222.09	-22.63	495.63	726.05	246.2	925.71	120.96	10.736	503.83	813.44	257.1	873.4	35.6	-54.04	455.72	1422.7	185.92	469.74	1190	34.363	509.41	1141.8	-165.18	924.09	91.012	-89.784	589.97	1121.1	289.51
873	4.365	844.3	897.22	394.73	1132.6	151.38	-32.938	882.47	302.21	-20.712	855.79	383.13	-20.067	827.77	937.43	334.04	1081.7	129.78	-21.756	624.99	1493.6	239.43	620.63	1036.7	-271.5	584.11	1335	-210.93	744.95	1055.4	373.16	538.03	1167.1	-253.58	761.69	1690.2	126.05	664.13	874	-289.79	697.48	1021.9	-98.569	591.2	907.06	-279.3	674.52	912.55	-234.68	476.05	503.19	222.66	746.53	1289.7	51.474	605.21	1519.5	-132.12	493.35	642.72	236.68	775.17	913.47	401.37	563.58	34.374	118.35	510.99	1546.3	65.469	454.29	1058.6	81.911	513.9	50.772	101.75	463.81	29.923	196.98	464.97	1057.7	-26.309	476.27	501.13	73.415	766.77	1696.7	20.832	435.16	188.11	117.42	728.8	639.07	-150.41	765.36	496	23.624	462.06	263.28	188.19	492.43	350.49	136.04	289.05	48.604	110.83	700.54	721.05	-163.35	678.94	1461.5	40.819	464.05	268.35	125.84	559.53	721.27	251.1	387.09	103.2	62.772	1062.8	91.635	-103.86	670.77	802.72	-171.82	648.41	1037.8	213.87	752.99	743.42	-145.82	352.25	78.144	154.72	601.01	1686.4	-7.0898	904.97	309.71	-79.746	590.61	1680.8	134.44	765.1	505.15	-121.05	636.18	1317.9	319.47	627.59	1156.9	373.89	913.2	221.74	-22.363	499.91	725.59	246.02	933.71	120.76	11.277	508.52	812.92	256.87	881.25	35.071	-52.675	460.94	1421.4	185.19	475.52	1188.8	33.737	515.05	1140.7	-165.49	931.54	90.389	-89.002	595.67	1120	289.07
874	4.37	850.69	896.88	394.07	1139.7	151.1	-33.662	889.26	301.6	-20.543	862.42	382.48	-20.11	834.02	937.05	333.43	1089	129.6	-22.124	630.01	1492.6	238.95	626.02	1035.2	-271.84	589.78	1333.7	-211.39	750.86	1054.7	372.63	543.72	1165.8	-253.91	766.67	1689.3	125.59	669.1	872.39	-290.1	703.44	1020.7	-98.65	596.27	905.68	-279.71	679.56	910.91	-234.98	479.26	502.86	222.42	752.16	1288.8	51.257	610.74	1518.4	-132.67	497.29	642.3	236.42	781.5	912.88	400.79	563.67	34.304	118.31	516.19	1545.1	64.812	460.12	1057.6	81.162	514.04	50.803	101.75	463.84	29.853	197	470.86	1056.6	-27.062	479.66	500.73	73.188	771.81	1695.8	20.37	436.14	188	117.41	734.41	637.96	-150.85	771.66	495.39	23.719	463.56	262.97	188.1	494.57	349.97	135.88	289.13	49.352	110.93	706.08	719.91	-164.08	684.33	1460.5	40.404	465.64	268.03	125.75	563.87	720.53	250.71	387.44	103.42	62.797	1069.6	90.626	-103.67	676.18	801.56	-172.44	653.32	1036.7	213.54	758.62	742.35	-146.86	352.54	78.596	154.75	606.08	1685.4	-7.6413	911.37	308.92	-79.71	595.61	1679.7	133.88	770.82	503.87	-121.09	641.51	1316.9	318.99	633.22	1156	373.42	920.17	221.22	-22.004	504.25	725.13	245.84	941.18	120.35	11.913	513.29	812.4	256.64	888.38	34.513	-51.22	466.18	1420.1	184.45	481.32	1187.5	33.111	520.71	1139.5	-165.82	938.35	89.592	-88.139	601.35	1119	288.6
875	4.375	857	896.48	393.42	1146.3	150.23	-34.333	895.83	300.86	-20.285	868.95	381.73	-20.066	840.2	936.62	332.82	1095.7	128.91	-22.435	635.05	1491.6	238.46	631.45	1033.7	-272.21	595.47	1332.5	-211.88	756.73	1054	372.09	549.45	1164.5	-254.26	771.67	1688.4	125.12	674.1	870.75	-290.43	709.41	1019.4	-98.797	601.36	904.28	-280.13	684.63	909.25	-235.29	482.53	502.55	222.17	757.82	1287.9	51.004	616.3	1517.2	-133.23	501.3	641.89	236.15	787.77	912.24	400.21	563.75	34.243	118.26	521.41	1543.9	64.135	465.97	1056.5	80.417	514.16	50.839	101.75	463.88	29.792	197.02	476.77	1055.5	-27.813	483.07	500.35	72.957	776.86	1695	19.903	437.13	187.93	117.4	740.3	637	-151.19	778.14	494.88	23.866	465.09	262.69	188.02	496.74	349.47	135.72	289.21	50.158	111.04	711.85	718.87	-164.76	689.73	1459.4	39.967	467.24	267.73	125.66	568.28	719.8	250.3	387.79	103.68	62.828	1075.7	89.257	-103.45	681.77	800.49	-173.06	658.39	1035.5	213.18	764.47	741.42	-147.93	352.83	79.089	154.8	611.17	1684.2	-8.2019	917.57	307.97	-79.576	600.61	1678.7	133.31	776.66	502.63	-121.06	646.84	1315.9	318.5	638.83	1155	372.94	926.77	220.53	-21.554	508.66	724.67	245.64	948.11	119.73	12.634	518.13	811.89	256.41	894.79	33.938	-49.717	471.44	1418.8	183.68	487.13	1186.2	32.485	526.4	1138.2	-166.19	944.57	88.636	-87.211	607.01	1117.9	288.11
876	4.38	863.25	896.04	392.78	1152.4	148.75	-34.902	902.16	300.01	-19.939	875.38	380.9	-19.933	846.34	936.13	332.21	1101.8	127.7	-22.652	640.12	1490.6	237.95	636.9	1032.2	-272.59	601.19	1331.2	-212.39	762.56	1053.3	371.53	555.21	1163.2	-254.63	776.68	1687.5	124.65	679.12	869.08	-290.77	715.38	1018.2	-99.016	606.48	902.85	-280.58	689.72	907.57	-235.63	485.86	502.25	221.92	763.51	1287	50.715	621.88	1516	-133.82	505.37	641.49	235.87	793.97	911.57	399.62	563.82	34.19	118.21	526.64	1542.6	63.44	471.87	1055.5	79.678	514.28	50.878	101.75	463.91	29.741	197.03	482.68	1054.4	-28.557	486.51	499.97	72.718	781.92	1694.1	19.429	438.15	187.89	117.39	746.42	636.16	-151.45	784.77	494.44	24.057	466.66	262.43	187.94	498.94	348.99	135.54	289.31	51.027	111.16	717.83	717.93	-165.38	695.16	1458.4	39.505	468.87	267.46	125.57	572.76	719.07	249.87	388.15	103.97	62.865	1081.3	87.548	-103.19	687.53	799.51	-173.68	663.65	1034.3	212.81	770.55	740.64	-149.02	353.12	79.628	154.87	616.27	1683.1	-8.7714	923.6	306.88	-79.339	605.63	1677.6	132.74	782.62	501.44	-120.95	652.17	1314.9	318	644.41	1153.9	372.43	933.01	219.67	-21.015	513.15	724.22	245.43	954.52	118.9	13.433	523.05	811.38	256.17	900.52	33.369	-48.206	476.72	1417.4	182.89	492.96	1184.9	31.858	532.11	1137	-166.58	950.21	87.543	-86.233	612.66	1116.7	287.6
